<?xml version="1.0" standalone="no"?>
<svg viewBox="0 0 200 200" xmlns="http://www.w3.org/2000/svg">
  <path fill="#854F6C" d="M31.8,-49.3C42.5,-42.5,53.6,-36,64.4,-25.5C75.2,-15.1,85.8,-0.6,87,14.7C88.1,29.9,79.9,46,67.4,55.9C55,65.9,38.3,69.7,22.2,73.6C6,77.4,-9.5,81.4,-23.4,78C-37.3,74.7,-49.5,64.1,-51.8,50.8C-54,37.5,-46.2,21.5,-44.1,8.9C-42,-3.8,-45.5,-13.1,-46.1,-24.8C-46.6,-36.6,-44.2,-50.7,-36,-58.8C-27.8,-66.8,-13.9,-68.7,-1.7,-66.1C10.5,-63.4,21,-56.2,31.8,-49.3Z" transform="translate(100 100)" />
</svg>
