<svg width="424" height="418" viewBox="0 0 424 418" fill="#fff" xmlns="http://www.w3.org/2000/svg">
<path d="M220.281 418.816C215.571 418.816 210.86 418.816 205.66 418.51C198.37 417.048 192.667 413.958 187.658 409.255C180.895 402.904 176.58 395.29 176.491 386.144C176.216 358.12 176.391 330.091 176.391 302.064C176.391 300.8 176.391 299.536 176.391 297.044C174.375 299.278 173.271 300.65 172.016 301.872C152.024 321.339 132.076 340.851 111.96 360.193C107.17 364.799 100.874 367.288 94.3981 368.067C80.7743 369.707 68.8385 365.773 60.0046 355.026C52.4245 345.803 50.4515 335.084 53.0282 323.572C54.8561 315.405 59.7189 308.957 65.5646 303.177C83.8829 285.063 102.248 266.996 120.591 248.907C121.494 248.017 122.357 247.087 123.66 245.738C121.573 245.738 120.222 245.738 118.871 245.738C90.5799 245.738 62.2886 245.747 33.9974 245.714C32.5345 245.712 31.046 245.471 29.6136 245.15C18.4961 242.659 9.9396 236.855 4.83061 226.54C3.65033 224.157 2.17025 221.918 0.828125 219.613C0.828122 213.337 0.828122 207.061 1.12678 200.324C2.74804 197.188 3.90263 194.415 5.42221 191.852C12.1257 180.545 22.0634 174.071 35.4482 173.963C63.3255 173.737 91.2059 173.895 119.085 173.895C120.401 173.895 121.716 173.895 123.936 173.895C122.242 172.285 121.17 171.31 120.147 170.288C100.216 150.373 80.2269 130.515 60.4114 110.489C55.6397 105.667 53.0536 99.3775 52.2896 92.8182C50.7624 79.7061 54.5468 68.2039 65.1243 59.547C74.412 51.9456 85.1191 49.8331 96.8763 52.2069C105.688 53.986 112.452 59.059 118.603 65.1037C136.784 82.9704 154.92 100.881 173.048 118.799C173.97 119.71 174.657 120.852 175.453 121.886C175.766 121.675 176.078 121.464 176.391 121.253C176.391 119.948 176.391 118.643 176.391 117.338C176.391 89.3094 176.084 61.2758 176.534 33.2539C176.727 21.2405 183.408 12.1259 193.602 5.82577C197.182 3.61375 201.431 2.45571 205.375 0.816406C210.085 0.816406 214.796 0.816406 219.997 1.12309C227.285 2.58244 232.984 5.67598 237.994 10.375C244.762 16.7212 249.076 24.3326 249.166 33.4767C249.441 61.4941 249.266 89.5157 249.266 117.536C249.266 118.809 249.266 120.083 249.266 121.357C251.1 120.59 251.975 119.387 253.028 118.362C273.21 98.7066 293.343 79.0021 313.661 59.4848C318.546 54.7923 324.949 52.2914 331.606 51.5441C344.747 50.0691 356.279 53.7354 365.035 63.9674C372.931 73.1936 375.149 83.8528 372.683 95.5799C370.862 104.242 365.733 110.913 359.579 116.982C341.533 134.778 323.489 152.577 305.417 170.347C304.402 171.345 303.14 172.099 301.994 172.967C302.224 173.276 302.454 173.585 302.683 173.895C304.014 173.895 305.345 173.895 306.676 173.895C335.098 173.895 363.525 173.59 391.94 174.037C404.119 174.229 413.362 180.817 419.747 190.867C421.989 194.395 423.165 198.582 424.828 202.469C424.828 207.112 424.828 211.756 424.517 216.884C423.04 224.07 419.897 229.684 415.133 234.625C408.699 241.299 400.979 245.551 391.704 245.64C363.287 245.911 334.867 245.738 306.447 245.738C305.153 245.738 303.858 245.738 302.564 245.738C303.318 247.552 304.547 248.402 305.585 249.438C325.521 269.331 345.503 289.18 365.302 309.204C370.066 314.022 372.609 320.33 373.37 326.889C374.873 339.837 371.162 351.204 360.795 359.853C351.439 367.659 340.633 369.818 328.737 367.415C319.938 365.638 313.177 360.566 307.025 354.511C288.866 336.637 270.728 318.744 252.607 300.833C251.686 299.922 250.999 298.781 250.203 297.747C249.891 297.958 249.578 298.169 249.266 298.38C249.266 299.684 249.266 300.988 249.266 302.292C249.266 330.173 249.269 358.054 249.256 385.935C249.256 387.284 249.336 388.685 249.012 389.972C245.988 401.983 239.266 411.09 227.498 416.108C225.138 417.114 222.689 417.919 220.281 418.816Z" fill="black"/>
</svg>
